<svg xmlns="http://www.w3.org/2000/svg" width="512" height="512" viewBox="0 0 512 512"><mask id="a"><circle cx="256" cy="256" r="256" fill="#fff"/></mask><g mask="url(#a)"><path fill="#496e2d" d="m0 256 255.9-49L512 256v256H0z"/><path fill="#eee" d="M0 0h512v256H0z"/><path fill="#d80027" d="M443 178.1a66.8 66.8 0 0 0-63-44.5h-57.2a66.8 66.8 0 0 0-58 100.1c-21.3-.1-41 .2-53.3 0v-65.4l2.6-2.6c11.8-11.8 7.9-31.5 7.9-31.5s-19.7-4-31.5 7.9l-13.8 13.7h-15.3a61.2 61.2 0 0 0-61.2 61.2h44.5v50.1a53.2 53.2 0 0 0 4.1 20.7l-15.2 12.7h-22.3v-22.2H89v44.5h100.2v44.5H167v22.3h44.5V345l20.4-24.4H280l20.4 24.4v22.3h-22.2v22.3h89V267a33.4 33.4 0 0 1 34.8-33.3 44.6 44.6 0 0 1-1.4-11.2 44.5 44.5 0 0 1 42.3-44.5zM322.8 367.3v-46.7h1.8L345 345v22.3z"/></g></svg>