<svg xmlns="http://www.w3.org/2000/svg" width="512" height="512" viewBox="0 0 512 512"><mask id="a"><circle cx="256" cy="256" r="256" fill="#fff"/></mask><g mask="url(#a)"><path fill="#eee" d="M0 0h512v512H0z"/><path fill="#0052b4" d="M256 0v31.5h.3c21.4 0 21.4 19.5 42.7 19.5 21.3 0 21.3-19.5 42.7-19.5C363 31.5 363 51 384.3 51c21.4 0 21.4-19.5 42.7-19.5 21.3 0 21.3 19.5 42.7 19.5C491 51 491 31.7 512 31.5V0h-11.9c-10.3 5.4-14.2 16.7-30.4 16.7S449.5 5.4 439.2 0h-24.4c-10.3 5.4-14.2 16.7-30.5 16.7-16.2 0-20.1-11.3-30.4-16.7h-24.4C319 5.4 315.2 16.7 299 16.7S278.9 5.4 268.5 0zm.3 65.5c-6 0-8.8 17.4-8.8 17.4l8.3 17 .5-.1c21.4 0 21.4 19.5 42.7 19.5 21.3 0 21.3-19.5 42.7-19.5 21.3 0 21.3 19.5 42.6 19.5 21.4 0 21.4-19.5 42.7-19.5 21.3 0 21.3 19.5 42.7 19.5 21.3 0 21.3-19.3 42.3-19.5V65.5c-21 .2-21.1 19.5-42.3 19.5-21.3 0-21.4-19.5-42.7-19.5-21.3 0-21.3 19.5-42.7 19.5-21.3 0-21.3-19.5-42.6-19.5-21.4 0-21.4 19.5-42.7 19.5-21.3 0-21.3-19.5-42.7-19.5zm-.3 68.1-7.2 17.2s3.7 16.2 7.2 16.2c21.4 0 21.4 19.5 42.7 19.5 21.3 0 21.3-19.5 42.7-19.5 21.3 0 21.3 19.5 42.6 19.5 21.4 0 21.4-19.5 42.7-19.5 21.3 0 21.3 19.5 42.7 19.5 21.4 0 21.3-19.4 42.5-19.5v-34.3c-21.2 0-21.2 19.5-42.5 19.5s-21.4-19.5-42.7-19.5c-21.3 0-21.3 19.5-42.7 19.5-21.3 0-21.3-19.5-42.6-19.5-21.4 0-21.4 19.5-42.7 19.5-21.3 0-21.3-18.6-42.7-18.6zm0 67.1-3.2.8 3.2 7.3V235c21.4 0 21.4 19.5 42.7 19.5 21.3 0 21.3-19.5 42.7-19.5 21.3 0 21.3 19.5 42.6 19.5 21.4 0 21.4-19.5 42.7-19.5 21.3 0 21.3 19.5 42.7 19.5 21.4 0 21.3-19.4 42.5-19.5v-34.3c-21.2 0-21.2 19.5-42.5 19.5s-21.4-19.5-42.7-19.5c-21.3 0-21.3 19.5-42.7 19.5-21.3 0-21.3-19.5-42.6-19.5-21.4 0-21.4 19.5-42.7 19.5-21.3 0-21.3-19.5-42.7-19.5zM85 269.2c-21.3 0-21.3 19.5-42.7 19.5-21.2 0-21.3-19.3-42.3-19.5v34.3c21 .2 21.1 19.5 42.3 19.5 21.4 0 21.4-19.5 42.7-19.5 21.3 0 21.3 19.5 42.7 19.5 21.4 0 21.3-19.5 42.6-19.5 21.4 0 21.4 19.5 42.7 19.5 21.3 0 21.3-19.5 42.7-19.5 21.4 0 21.4 19.5 42.7 19.5 21.3 0 21.3-19.5 42.7-19.5 21.3 0 21.3 19.5 42.6 19.5 21.4 0 21.4-19.5 42.7-19.5 21.3 0 21.3 19.5 42.7 19.5 21.4 0 21.3-19.4 42.5-19.5v-34.3c-21.2 0-21.2 19.5-42.5 19.5s-21.4-19.5-42.7-19.5c-21.3 0-21.3 19.5-42.7 19.5-21.3 0-21.3-19.5-42.6-19.5-21.4 0-21.4 19.5-42.7 19.5-21.3 0-21.3-19.5-42.7-19.5-21.4 0-21.4 19.5-42.7 19.5-21.3 0-21.3-19.5-42.7-19.5-21.3 0-21.3 19.5-42.6 19.5s-21.4-19.5-42.7-19.5zM.3 337.5H.2v34.3h.1c21.3 0 21.3 19.5 42.6 19.5 21.4 0 21.4-19.5 42.7-19.5 21.3 0 21.3 19.5 42.7 19.5 21.4 0 21.3-19.5 42.6-19.5 21.4 0 21.4 19.5 42.7 19.5 21.3 0 21.3-19.5 42.7-19.5 21.4 0 21.4 19.5 42.7 19.5 21.3 0 21.3-19.5 42.7-19.5 21.3 0 21.3 19.5 42.6 19.5 21.4 0 21.4-19.5 42.7-19.5 21.3 0 21.3 19.5 42.7 19.5 21.3 0 21.3-19.3 42.3-19.5v-34.3c-21 .2-21.1 19.5-42.3 19.5-21.3 0-21.4-19.5-42.7-19.5-21.3 0-21.3 19.5-42.7 19.5-21.3 0-21.3-19.5-42.6-19.5-21.4 0-21.4 19.5-42.7 19.5-21.3 0-21.3-19.5-42.7-19.5-21.4 0-21.4 19.5-42.7 19.5-21.3 0-21.3-19.5-42.7-19.5-21.3 0-21.3 19.5-42.6 19.5s-21.4-19.5-42.7-19.5c-21.3 0-21.3 19.5-42.7 19.5-21.3 0-21.3-19.5-42.6-19.5zm.7 68H.9v34.3H1c21.3 0 21.3 19.5 42.6 19.5 21.4 0 21.4-19.5 42.7-19.5 21.3 0 21.3 19.5 42.7 19.5 21.4 0 21.3-19.5 42.6-19.5 21.4 0 21.4 19.5 42.7 19.5 21.3 0 21.3-19.5 42.7-19.5 21.4 0 21.4 19.5 42.7 19.5 21.3 0 21.3-19.5 42.7-19.5 21.3 0 21.3 19.5 42.6 19.5 21.4 0 21.4-19.5 42.7-19.5 21.3 0 21.3 19.5 42.7 19.5 21 0 21.3-18.9 41.6-19.5v-34.3c-20.3.6-20.6 19.5-41.6 19.5-21.3 0-21.4-19.5-42.7-19.5-21.3 0-21.3 19.5-42.7 19.5-21.3 0-21.3-19.5-42.6-19.5-21.4 0-21.4 19.5-42.7 19.5-21.3 0-21.3-19.5-42.7-19.5-21.4 0-21.4 19.5-42.7 19.5-21.3 0-21.3-19.5-42.7-19.5-21.3 0-21.3 19.5-42.6 19.5s-21.4-19.5-42.7-19.5C65 405.5 65 425 43.6 425c-21.3 0-21.3-19.5-42.6-19.5zm-.7 68H.2v34.3h.1a25 25 0 0 1 14.5 4.2h56.3a25 25 0 0 1 14.5-4.2 25 25 0 0 1 14.5 4.2h56.3a25 25 0 0 1 14.5-4.2c6.4 0 10.9 1.8 14.6 4.2h56.2c3.7-2.4 8.2-4.2 14.6-4.2s10.9 1.8 14.6 4.2h56.2c3.7-2.4 8.2-4.2 14.6-4.2a25 25 0 0 1 14.5 4.2h56.3a25 25 0 0 1 14.5-4.2 25 25 0 0 1 14.5 4.2h56.3c3.6-2.4 8-4.1 14.2-4.2v-34.3c-21 .2-21.1 19.5-42.3 19.5-21.3 0-21.4-19.5-42.7-19.5-21.3 0-21.3 19.5-42.7 19.5-21.3 0-21.3-19.5-42.6-19.5-21.4 0-21.4 19.5-42.7 19.5-21.3 0-21.3-19.5-42.7-19.5-21.4 0-21.4 19.5-42.7 19.5-21.3 0-21.3-19.5-42.7-19.5-21.3 0-21.3 19.5-42.6 19.5s-21.4-19.5-42.7-19.5c-21.3 0-21.3 19.5-42.7 19.5-21.3 0-21.3-19.5-42.6-19.5z"/><path fill="#6da544" d="M334 134h100l-50 50z"/><path fill="#a2001d" d="M373 173h22v50l-11.2 8.2L373 223zm0 161h22v61h-22z"/><path fill="#eee" d="M0 0h33.4l32 16.9L100.3 0H256v33.4l-14.8 33.5 14.8 33.3v33.4l-9.3 33.7c4.8 28 3.1 68.8 3.1 68.8L256 256h-47.2l-39.3-7-35.9 7.1-33.4-.1-32.6-16.6L33.4 256H0V100.2l14.2-35.8L0 33.4z"/><path fill="#ffda44" d="M451 301a33.7 33.7 0 0 0-56-25v-20h11v-22h-11v-11h-22v11h-11v22h11v20a34.2 34.2 0 0 0-47 3 33 33 0 0 0 2 46v20h112v-20c7-6.3 11-14.5 11-24z"/><path fill="#d80027" d="M33.4 0v33.4H0v66.8h33.4V256h66.8V100.2H256V33.4H100.2V0H33.4zm100.2 133.5L256 256v-31.5l-91-91h-31.4zm217.7 155.9c-3.2-.1-6.2 1.2-8.3 3.6-4 4.4-4.2 11.8 0 16l8 6v8h65v-8l8-6c4.2-4.2 4-11.6 0-16s-10.4-4.7-15-1l-15 14h-21l-15-14a11.4 11.4 0 0 0-6.7-2.6z"/><path fill="#eee" d="M256 0zm-.7 256h.7v-.7z"/><path fill="#0052b4" d="M180.8 133.6H256v75.2zm-47.2 47.2v75.3l75.2-.1z"/></g></svg>