<svg xmlns="http://www.w3.org/2000/svg" width="512" height="512" viewBox="0 0 512 512"><mask id="a"><circle cx="256" cy="256" r="256" fill="#fff"/></mask><g mask="url(#a)"><path fill="#d80027" d="m0 0 216.9 301.6L512 512V0z"/><path fill="#ffda44" d="m0 0 512 512H0z"/><path fill="#ff9811" d="M320.4 320.4A38.9 38.9 0 0 1 272 265l-3.2-1.7a72.5 72.5 0 0 0 30.5-125l-23.3 24a38.9 38.9 0 0 1-23.8 69.5v3.6a72.5 72.5 0 0 0-123.2 36l32.4 8.2a38.9 38.9 0 0 1 72-14l3.2-2a72.5 72.5 0 0 0 92.7 89l-9-32.3zM252.7 254z"/><path fill="#eee" d="M348.2 170.8 330 235.4l-54.3-10-35-72.1-94.4 33.5-7.4-21-24.7-3 18.6 52.4 65-16.6 18.4 52-45 66.3 76.4 65-14.5 17 9.7 22.9 36-42.4-46.7-48 35.8-42 79.8 5.8 18.2-98.5 22 4 15-19.8zM253.4 255z"/></g></svg>