<svg xmlns="http://www.w3.org/2000/svg" width="512" height="512" viewBox="0 0 512 512"><mask id="a"><circle cx="256" cy="256" r="256" fill="#fff"/></mask><g mask="url(#a)"><path fill="#0052b4" d="M256 0h256v511.9H0v-256z"/><path fill="#eee" d="M256 0H100.2L66.7 14.9 33.4 0H0v33.4l15.7 31.3L0 100.2V256h33.4l34-13.6 32.8 13.6h33.4v-75.2l75.2 75.2H256l-7.7-21.3 7.7-10.2v-15.7l-75.2-75.2H256v-33.4l-11.8-33.4L256 33.4z"/><path fill="#d80027" d="m256 224.5-91-91h-31.4L256 256z"/><path fill="#d80027" d="M33.4 0v33.4H0v66.8h33.4V256h66.8V100.2H256V33.4H100.2V0z"/><circle cx="367.3" cy="144.7" r="44.5" fill="#6da544"/><path fill="#d80027" d="M289.4 133.5h155.8l.1 29-76.9 79.7-79.1-79.7z"/><path fill="#496e2d" d="M445.2 256zm-155.8 0z"/><path fill="#ffda44" d="M289.4 300.5V345h23.4a77.6 77.6 0 0 0 109 0h23.4v-44.5z"/><path fill="#338af3" d="M289.3 193.7v31.2l8 16.6-7.9 14.5c.1 59.6 77.9 78 77.9 78s78-18.4 78-78l-7.7-13.2 7.7-18v-31.1l-78-10.2z"/><path fill="#eee" d="M367.3 224.9c-19.5 0-19.5 17.8-39 17.8s-19.4-17.8-39-17.8V256c19.7 0 19.6 17.8 39 17.8s19.5-17.8 39-17.8 19.5 17.8 39 17.8 19.4-17.8 39-17.8v-31.2c-19.6 0-19.6 17.8-39 17.8-19.5 0-19.5-17.8-39-17.8zm0-62.4c-19.5 0-19.5 17.8-39 17.8s-19.4-17.8-39-17.8v31.2c19.7 0 19.6 17.8 39 17.8s19.5-17.8 39-17.8 19.5 17.8 39 17.8 19.4-17.8 39-17.8v-31.2c-19.6 0-19.6 17.8-39 17.8-19.5 0-19.5-17.8-39-17.8z"/></g></svg>