<svg xmlns="http://www.w3.org/2000/svg" width="512" height="512" viewBox="0 0 512 512"><mask id="a"><circle cx="256" cy="256" r="256" fill="#fff"/></mask><g mask="url(#a)"><path fill="#eee" d="M0 256 256 0h256v64l-24 67.6 24 60.4v64l-30.9 71.1L512 384v64l-255.2 33.9L0 448v-64l33.4-57.7z"/><path fill="#d80027" d="M0 448h512v64H0zm0-192h512v64l-256 17.8L0 320z"/><path fill="#0052b4" d="M0 320h512v64H0z"/><path fill="#d80027" d="M236.4 64H512v64l-275.6 15z"/><path fill="#0052b4" d="M236.4 128H512v64H236.4z"/><path fill="#eee" d="M0 0h33.3L64 20.9 97.4 0h109L256 31.7V64l-21.4 31.6L256 128v31.7l-20 31.5 20 48.3.1 16.5-21.8-9.3-8.4 9.3h-44.7l-33-12.7-18.5 12.7H97.4L66 235.4 33.3 256H0V128l21-31.6L0 64z"/><path fill="#d80027" d="M33.3 0v64H0v64h33.3v144.4h64.1V128H256V64H97.4V0zm96.4 159.7L238.9 269h30.2L159.8 159.7z"/><path fill="#0052b4" d="M206.5 0 175 31.7h81V0zm-31.6 159.7 81.1 79.8v-79.8zM129.7 205v51h51.5z"/></g></svg>